<svg width="34" height="32" viewBox="0 0 34 32" fill="none" xmlns="http://www.w3.org/2000/svg">
<path d="M13.923 32C15.4099 32 16.6153 30.7946 16.6153 29.3077C16.6153 27.8207 15.4099 26.6154 13.923 26.6154C12.4361 26.6154 11.2307 27.8207 11.2307 29.3077C11.2307 30.7946 12.4361 32 13.923 32Z" fill="black"/>
<path d="M26.9999 32C28.4868 32 29.6922 30.7946 29.6922 29.3077C29.6922 27.8207 28.4868 26.6154 26.9999 26.6154C25.513 26.6154 24.3076 27.8207 24.3076 29.3077C24.3076 30.7946 25.513 32 26.9999 32Z" fill="black"/>
<path d="M2 2L8.92308 6.61538L12.7692 23.5385H28.1538L32 10.4615H17.3846" stroke="black" stroke-width="4" stroke-linecap="round" stroke-linejoin="round"/>
<path d="M17.3845 17.3846H29.6922" stroke="black" stroke-width="4" stroke-linecap="round" stroke-linejoin="round"/>
</svg>
