<svg width="41" height="34" viewBox="0 0 41 34" fill="none" xmlns="http://www.w3.org/2000/svg">
<path fill-rule="evenodd" clip-rule="evenodd" d="M28.1875 31.875C30.906 31.875 33.5131 30.9795 35.4353 29.3854C37.3576 27.7913 38.4375 25.6293 38.4375 23.375C38.4375 21.1207 37.3576 18.9587 35.4353 17.3646C33.5131 15.7705 30.906 14.875 28.1875 14.875C25.469 14.875 22.8619 15.7705 20.9397 17.3646C19.0174 18.9587 17.9375 21.1207 17.9375 23.375C17.9375 25.6293 19.0174 27.7913 20.9397 29.3854C22.8619 30.9795 25.469 31.875 28.1875 31.875ZM41 23.375C41 26.1929 39.6501 28.8954 37.2473 30.888C34.8445 32.8806 31.5856 34 28.1875 34C24.7894 34 21.5305 32.8806 19.1277 30.888C16.7249 28.8954 15.375 26.1929 15.375 23.375C15.375 20.5571 16.7249 17.8546 19.1277 15.862C21.5305 13.8694 24.7894 12.75 28.1875 12.75C31.5856 12.75 34.8445 13.8694 37.2473 15.862C39.6501 17.8546 41 20.5571 41 23.375Z" fill="black"/>
<path d="M24.1849 25.381C24.3054 26.6475 25.5123 27.6335 27.6776 27.7525V28.6875H28.6386V27.7461C30.8807 27.6165 32.1902 26.622 32.1902 25.1813C32.1902 23.868 31.1908 23.1922 29.3971 22.8438L28.6386 22.695V20.145C29.6021 20.2364 30.2119 20.672 30.358 21.2755H32.0441C31.9237 20.0536 30.6604 19.0995 28.6386 18.9954V18.0625H27.6776V19.0187C25.7634 19.1739 24.4617 20.128 24.4617 21.4795C24.4617 22.6737 25.4303 23.4345 27.0421 23.7447L27.6776 23.8744V26.5774C26.6936 26.4541 26.0402 26.0036 25.8941 25.381H24.1824H24.1849ZM27.6699 22.5038C26.7244 22.3231 26.2119 21.9512 26.2119 21.3945C26.2119 20.7697 26.7654 20.3022 27.6776 20.1662V22.5038H27.6699ZM28.7769 24.089C29.9275 24.31 30.4554 24.667 30.4554 25.2981C30.4554 26.0185 29.7968 26.5115 28.6386 26.6029V24.0635L28.7769 24.089Z" fill="black"/>
<path d="M2.5625 0C1.88288 0 1.2311 0.223883 0.750539 0.622398C0.269977 1.02091 0 1.56141 0 2.125L0 19.125C0 19.6886 0.269977 20.2291 0.750539 20.6276C1.2311 21.0261 1.88288 21.25 2.5625 21.25H13.0252C13.1738 20.519 13.3968 19.8092 13.6863 19.125H7.6875C7.6875 17.9978 7.14755 16.9168 6.18642 16.1198C5.2253 15.3228 3.92173 14.875 2.5625 14.875V6.375C3.92173 6.375 5.2253 5.92723 6.18642 5.1302C7.14755 4.33317 7.6875 3.25217 7.6875 2.125H33.3125C33.3125 3.25217 33.8525 4.33317 34.8136 5.1302C35.7747 5.92723 37.0783 6.375 38.4375 6.375V13.872C39.4113 14.5945 40.2748 15.419 41 16.3243V2.125C41 1.56141 40.73 1.02091 40.2495 0.622398C39.7689 0.223883 39.1171 0 38.4375 0L2.5625 0Z" fill="black"/>
<path d="M25.6199 10.8014L25.625 10.625C25.6245 9.89317 25.3961 9.17381 24.9619 8.53665C24.5277 7.89948 23.9024 7.36609 23.1466 6.98814C22.3909 6.61019 21.5302 6.40048 20.6481 6.37934C19.7659 6.35819 18.8921 6.52632 18.1113 6.86744C17.3304 7.20856 16.6691 7.71111 16.1912 8.32642C15.7134 8.94173 15.4352 9.64894 15.3837 10.3796C15.3322 11.1102 15.5091 11.8395 15.8973 12.4967C16.2854 13.154 16.8717 13.717 17.5993 14.1313C19.8126 12.383 22.6058 11.2234 25.6199 10.8014Z" fill="black"/>
</svg>
