<svg width="13" height="14" viewBox="0 0 13 14" fill="none" xmlns="http://www.w3.org/2000/svg">
<path fill-rule="evenodd" clip-rule="evenodd" d="M0.996359 1.34308C0.422275 1.92888 0.422275 2.87868 0.996359 3.46448L4.46125 6.99998L0.996359 10.5355C0.422275 11.1213 0.422275 12.0711 0.996359 12.6569C1.57044 13.2426 2.50125 13.2426 3.07533 12.6569L6.54012 9.12128L10.0049 12.6569C10.579 13.2426 11.5098 13.2426 12.0838 12.6569C12.6579 12.0711 12.6579 11.1213 12.0838 10.5355L8.619 6.99998L12.0838 3.46448C12.6579 2.87868 12.6579 1.92888 12.0838 1.34308C11.5098 0.757384 10.579 0.757384 10.0049 1.34308L6.54012 4.87868L3.07533 1.34308C2.50125 0.757384 1.57044 0.757384 0.996359 1.34308Z" fill="#003169"/>
</svg>
