<svg width="53" height="35" viewBox="0 0 53 35" fill="none" xmlns="http://www.w3.org/2000/svg">
<path d="M46.375 2.91667C47.2535 2.91667 48.0961 3.22396 48.7173 3.77094C49.3385 4.31792 49.6875 5.05979 49.6875 5.83333V29.1667C49.6875 29.9402 49.3385 30.6821 48.7173 31.2291C48.0961 31.776 47.2535 32.0833 46.375 32.0833H6.625C5.74647 32.0833 4.90392 31.776 4.28271 31.2291C3.66149 30.6821 3.3125 29.9402 3.3125 29.1667V5.83333C3.3125 5.05979 3.66149 4.31792 4.28271 3.77094C4.90392 3.22396 5.74647 2.91667 6.625 2.91667H46.375ZM6.625 0C4.86794 0 3.18285 0.614581 1.94042 1.70854C0.697989 2.80251 0 4.28624 0 5.83333L0 29.1667C0 30.7138 0.697989 32.1975 1.94042 33.2915C3.18285 34.3854 4.86794 35 6.625 35H46.375C48.1321 35 49.8172 34.3854 51.0596 33.2915C52.302 32.1975 53 30.7138 53 29.1667V5.83333C53 4.28624 52.302 2.80251 51.0596 1.70854C49.8172 0.614581 48.1321 0 46.375 0H6.625Z" fill="black"/>
<path d="M6.625 10.2083C6.625 9.82156 6.7995 9.45063 7.1101 9.17714C7.42071 8.90365 7.84199 8.75 8.28125 8.75H14.9062C15.3455 8.75 15.7668 8.90365 16.0774 9.17714C16.388 9.45063 16.5625 9.82156 16.5625 10.2083V13.125C16.5625 13.5118 16.388 13.8827 16.0774 14.1562C15.7668 14.4297 15.3455 14.5833 14.9062 14.5833H8.28125C7.84199 14.5833 7.42071 14.4297 7.1101 14.1562C6.7995 13.8827 6.625 13.5118 6.625 13.125V10.2083ZM6.625 18.9583C6.625 18.5716 6.7995 18.2006 7.1101 17.9271C7.42071 17.6536 7.84199 17.5 8.28125 17.5H24.8438C25.283 17.5 25.7043 17.6536 26.0149 17.9271C26.3255 18.2006 26.5 18.5716 26.5 18.9583C26.5 19.3451 26.3255 19.716 26.0149 19.9895C25.7043 20.263 25.283 20.4167 24.8438 20.4167H8.28125C7.84199 20.4167 7.42071 20.263 7.1101 19.9895C6.7995 19.716 6.625 19.3451 6.625 18.9583ZM6.625 24.7917C6.625 24.4049 6.7995 24.034 7.1101 23.7605C7.42071 23.487 7.84199 23.3333 8.28125 23.3333H11.5938C12.033 23.3333 12.4543 23.487 12.7649 23.7605C13.0755 24.034 13.25 24.4049 13.25 24.7917C13.25 25.1784 13.0755 25.5494 12.7649 25.8229C12.4543 26.0964 12.033 26.25 11.5938 26.25H8.28125C7.84199 26.25 7.42071 26.0964 7.1101 25.8229C6.7995 25.5494 6.625 25.1784 6.625 24.7917ZM16.5625 24.7917C16.5625 24.4049 16.737 24.034 17.0476 23.7605C17.3582 23.487 17.7795 23.3333 18.2188 23.3333H21.5312C21.9705 23.3333 22.3918 23.487 22.7024 23.7605C23.013 24.034 23.1875 24.4049 23.1875 24.7917C23.1875 25.1784 23.013 25.5494 22.7024 25.8229C22.3918 26.0964 21.9705 26.25 21.5312 26.25H18.2188C17.7795 26.25 17.3582 26.0964 17.0476 25.8229C16.737 25.5494 16.5625 25.1784 16.5625 24.7917ZM26.5 24.7917C26.5 24.4049 26.6745 24.034 26.9851 23.7605C27.2957 23.487 27.717 23.3333 28.1562 23.3333H31.4688C31.908 23.3333 32.3293 23.487 32.6399 23.7605C32.9505 24.034 33.125 24.4049 33.125 24.7917C33.125 25.1784 32.9505 25.5494 32.6399 25.8229C32.3293 26.0964 31.908 26.25 31.4688 26.25H28.1562C27.717 26.25 27.2957 26.0964 26.9851 25.8229C26.6745 25.5494 26.5 25.1784 26.5 24.7917ZM36.4375 24.7917C36.4375 24.4049 36.612 24.034 36.9226 23.7605C37.2332 23.487 37.6545 23.3333 38.0938 23.3333H41.4062C41.8455 23.3333 42.2668 23.487 42.5774 23.7605C42.888 24.034 43.0625 24.4049 43.0625 24.7917C43.0625 25.1784 42.888 25.5494 42.5774 25.8229C42.2668 26.0964 41.8455 26.25 41.4062 26.25H38.0938C37.6545 26.25 37.2332 26.0964 36.9226 25.8229C36.612 25.5494 36.4375 25.1784 36.4375 24.7917Z" fill="black"/>
</svg>
