<svg width="40" height="40" viewBox="0 0 40 40" fill="none" xmlns="http://www.w3.org/2000/svg">
<path d="M39.26 8.65206L24.9743 0.190506C24.7633 0.0655314 24.5265 0 24.2857 0C24.0449 0 23.8081 0.0655314 23.5971 0.190506L9.31145 8.65206C9.08747 8.78487 8.90069 8.97998 8.77061 9.21704C8.64052 9.45409 8.5719 9.7244 8.5719 9.99976C8.5719 10.2751 8.64052 10.5454 8.77061 10.7825C8.90069 11.0195 9.08747 11.2146 9.31145 11.3475L22.8571 19.3705V35.8614L18.52 33.2921L17.1429 35.986L23.5971 39.8091C23.808 39.9343 24.0449 40 24.2857 40C24.5265 40 24.7634 39.9343 24.9743 39.8091L39.26 31.3475C39.484 31.2148 39.6709 31.0197 39.8011 30.7826C39.9312 30.5456 39.9999 30.2752 40 29.9998V9.99976C39.9999 9.72435 39.9312 9.45401 39.8011 9.21695C39.6709 8.97989 39.484 8.78481 39.26 8.65206ZM24.2857 3.29513L35.6071 9.99976L24.2857 16.7044L12.9643 9.99976L24.2857 3.29513ZM37.1428 29.0906L25.7143 35.8598V19.369L37.1428 12.5998V29.0906Z" fill="black"/>
<path d="M11.4285 19.9999H0V16.923H11.4285V19.9999Z" fill="black"/>
<path d="M14.2857 32.3075H2.85718V29.2306H14.2857V32.3075Z" fill="black"/>
<path d="M17.1428 26.1537H5.71423V23.0768H17.1428V26.1537Z" fill="black"/>
</svg>
