<svg width="75" height="67" viewBox="0 0 75 67" fill="none" xmlns="http://www.w3.org/2000/svg">
<path d="M5.4064 65C4.95779 64.9989 4.51383 64.9194 4.09986 64.766C3.68589 64.6126 3.31002 64.3884 2.99371 64.1061C2.67739 63.8239 2.42684 63.4891 2.25634 63.1209C2.08584 62.7527 1.99874 62.3583 2.00001 61.9602V5.03975C2.00001 3.36023 3.5249 2 5.4064 2H69.5952C71.4751 2 73 3.36023 73 5.03975V61.9602C73.0013 62.3583 72.9142 62.7527 72.7437 63.1209C72.5732 63.4891 72.3226 63.8239 72.0063 64.1061C71.69 64.3884 71.3141 64.6126 70.9001 64.766C70.4862 64.9194 70.0422 64.9989 69.5936 65H5.40479H5.4064Z" stroke="black" stroke-width="4" stroke-linecap="round" stroke-linejoin="round"/>
<path fill-rule="evenodd" clip-rule="evenodd" d="M61.1577 24.7473H53.3025C52.2566 24.7473 51.2535 25.116 50.5139 25.7722C49.7743 26.4285 49.3588 27.3186 49.3588 28.2467V35.2483H61.1577L59.4311 45.7464H49.3588V65H36.3803V45.7464H25.6658V35.2497H36.2432L36.3803 25.2857L36.3416 21.7147C36.3286 20.5083 36.5851 19.3116 37.0964 18.1937C37.6077 17.0758 38.3637 16.0589 39.3205 15.2018C40.2773 14.3447 41.4161 13.6643 42.671 13.2C43.9259 12.7357 45.2721 12.4966 46.6317 12.4967H61.1577V24.7473Z" fill="black"/>
</svg>
