<svg width="63" height="63" viewBox="0 0 63 63" fill="none" xmlns="http://www.w3.org/2000/svg">
<path d="M42.0035 31.5V31.4974C42.0034 29.0686 41.1612 26.7151 39.6204 24.8376C38.0796 22.9602 35.9355 21.6751 33.5535 21.2012C31.1714 20.7274 28.6987 21.0941 26.5567 22.239C24.4147 23.3838 22.7359 25.2359 21.8064 27.4797C20.8768 29.7235 20.754 32.2202 21.4588 34.5444C22.1636 36.8686 23.6525 38.8766 25.6718 40.2261C27.6911 41.5757 30.1158 42.1833 32.5329 41.9456C34.95 41.7078 37.2099 40.6394 38.9275 38.9223C39.9021 37.9802 40.6768 36.8513 41.2053 35.6031C41.7338 34.3549 42.0052 33.013 42.0035 31.6575L42.0009 31.4921V31.5H42.0035ZM47.6726 31.5C47.66 35.2228 46.3577 38.8263 43.9875 41.6971C41.6172 44.5679 38.3254 46.5287 34.6723 47.2457C31.0191 47.9628 27.2304 47.3918 23.9508 45.6299C20.6713 43.8681 18.1035 41.0242 16.6846 37.5824C15.2657 34.1406 15.0833 30.3134 16.1685 26.7522C17.2536 23.191 19.5392 20.1158 22.6364 18.0501C25.7335 15.9843 29.4508 15.0556 33.1555 15.422C36.8603 15.7883 40.3237 17.4272 42.9562 20.0595C44.4512 21.5102 45.6393 23.2465 46.45 25.1654C47.2606 27.0843 47.6773 29.1466 47.6752 31.2297L47.6726 31.5157V31.5026V31.5ZM52.1002 14.6871V14.6923C52.1005 15.5667 51.7976 16.4141 51.2431 17.0902C50.6886 17.7663 49.9168 18.2292 49.0593 18.4001C48.2017 18.5709 47.3115 18.4391 46.5402 18.0271C45.7689 17.6152 45.1644 16.9485 44.8295 16.1408C44.4947 15.3331 44.4503 14.4342 44.7039 13.5974C44.9575 12.7606 45.4934 12.0376 46.2203 11.5516C46.9472 11.0657 47.8202 10.8468 48.6904 10.9323C49.5606 11.0178 50.3742 11.4023 50.9926 12.0205C51.6645 12.6793 52.0818 13.5979 52.0818 14.6136V14.6897V14.6871H52.1002ZM31.5236 5.65856L28.3873 5.63756C26.4871 5.62356 25.0444 5.62356 24.0594 5.63756C23.0743 5.65156 21.755 5.69268 20.1015 5.76092C18.5662 5.81341 17.1095 5.96563 15.6844 6.20709L15.876 6.18084C14.7605 6.36456 13.7711 6.62702 12.8236 6.97609L12.9365 6.93934C11.598 7.47742 10.3807 8.27807 9.35661 9.29409C8.33248 10.3101 7.52216 11.5209 6.97346 12.8551L6.94722 12.926C6.61034 13.848 6.36079 14.7997 6.20184 15.7684L6.18872 15.8655C5.95528 17.2446 5.81586 18.6379 5.77141 20.0359L5.76879 20.091C5.70055 21.7462 5.65943 23.0655 5.64543 24.0489C5.63144 25.0322 5.63144 26.4748 5.64543 28.3768C5.65943 30.2787 5.66643 31.3242 5.66643 31.5131C5.66643 31.7021 5.65943 32.7475 5.64543 34.6495C5.63144 36.5514 5.63144 37.994 5.64543 38.9774C5.65943 39.9607 5.70055 41.28 5.76879 42.9352C5.82128 44.4706 5.9735 45.9272 6.21496 47.3524L6.18872 47.1608C6.37244 48.2762 6.63489 49.2657 6.98396 50.2131L6.94722 50.1003C7.48529 51.4388 8.28594 52.656 9.30196 53.6801C10.318 54.7043 11.5288 55.5146 12.863 56.0633L12.9338 56.0895C13.7685 56.4018 14.7579 56.6643 15.7762 56.8349L15.8734 56.848C17.1043 57.0632 18.5609 57.2155 20.0412 57.2653L20.0963 57.268C21.7515 57.3362 23.0708 57.3773 24.0541 57.3913C25.0375 57.4053 26.4801 57.4053 28.382 57.3913L31.5 57.3283L34.6364 57.3493C36.5365 57.3633 37.9792 57.3633 38.9643 57.3493C39.9493 57.3353 41.2686 57.2942 42.9221 57.226C44.4575 57.1735 45.9141 57.0212 47.3392 56.7798L47.1476 56.806C48.2631 56.6223 49.2525 56.3599 50.2 56.0108L50.0871 56.0475C51.4257 55.5095 52.6429 54.7088 53.667 53.6928C54.6911 52.6768 55.5015 51.466 56.0502 50.1318L56.0764 50.0609C56.3887 49.2263 56.6512 48.2368 56.8218 47.2185L56.8349 47.1214C57.0501 45.8905 57.2023 44.4338 57.2522 42.9536L57.2548 42.8985C57.3231 41.2433 57.3642 39.924 57.3782 38.9406C57.3922 37.9573 57.3922 36.5147 57.3782 34.6127C57.3642 32.7108 57.3572 31.6653 57.3572 31.4764C57.3572 31.2874 57.3642 30.242 57.3782 28.34C57.3922 26.4381 57.3922 24.9955 57.3782 24.0121C57.3642 23.0288 57.3231 21.7095 57.2548 20.0543C57.2023 18.5189 57.0501 17.0623 56.8087 15.6371L56.8349 15.8287C56.6684 14.7881 56.4021 13.7659 56.0397 12.7764L56.0764 12.8892C55.5383 11.5507 54.7377 10.3335 53.7217 9.30937C52.7056 8.28523 51.4948 7.47492 50.1606 6.92622L50.0898 6.89998C49.1677 6.5631 48.2161 6.31354 47.2474 6.1546L47.1503 6.14148C45.772 5.90816 44.3796 5.76874 42.9825 5.72417L42.9273 5.72155C41.2721 5.65331 39.9528 5.61219 38.9695 5.59819C37.9862 5.58419 36.5435 5.58419 34.6416 5.59819L31.5236 5.65856ZM63 31.5C63 37.7605 62.93 42.0936 62.79 44.4995C62.9141 46.9376 62.5245 49.3747 61.6465 51.6526C60.7685 53.9306 59.4216 55.9987 57.6932 57.7229C55.9649 59.447 53.8935 60.7888 51.6134 61.6613C49.3333 62.5338 46.8953 62.9174 44.4575 62.7874L44.4995 62.79C42.0936 62.93 37.7605 63 31.5 63C25.2395 63 20.9064 62.93 18.5005 62.79C16.0624 62.9141 13.6253 62.5245 11.3474 61.6465C9.06939 60.7685 7.00131 59.4216 5.27714 57.6932C3.55296 55.9649 2.21117 53.8935 1.33871 51.6134C0.466251 49.3333 0.0825895 46.8953 0.21259 44.4575L0.209965 44.4995C0.0699883 42.0936 0 37.7605 0 31.5C0 25.2395 0.0699883 20.9064 0.209965 18.5005C0.0859057 16.0624 0.475507 13.6253 1.35352 11.3474C2.23154 9.06939 3.57837 7.00131 5.30675 5.27714C7.03513 3.55296 9.10649 2.21117 11.3866 1.33871C13.6667 0.466251 16.1047 0.0825895 18.5425 0.21259L18.5005 0.209965C20.9064 0.0699883 25.2395 0 31.5 0C37.7605 0 42.0936 0.0699883 44.4995 0.209965C46.9376 0.0859057 49.3747 0.475507 51.6526 1.35352C53.9306 2.23154 55.9987 3.57837 57.7229 5.30675C59.447 7.03513 60.7888 9.10649 61.6613 11.3866C62.5337 13.6667 62.9174 16.1047 62.7874 18.5425L62.79 18.5005C62.93 20.9046 63 25.2378 63 31.5Z" fill="black"/>
</svg>
