<svg width="42" height="44" viewBox="0 0 42 44" fill="none" xmlns="http://www.w3.org/2000/svg">
<path d="M8.4 4.4C7.28609 4.4 6.2178 4.86357 5.43015 5.68873C4.6425 6.51389 4.2 7.63305 4.2 8.8V35.2C4.2 36.367 4.6425 37.4861 5.43015 38.3113C6.2178 39.1364 7.28609 39.6 8.4 39.6H33.6C34.7139 39.6 35.7822 39.1364 36.5698 38.3113C37.3575 37.4861 37.8 36.367 37.8 35.2V8.8C37.8 7.63305 37.3575 6.51389 36.5698 5.68873C35.7822 4.86357 34.7139 4.4 33.6 4.4H8.4ZM8.4 0H33.6C35.8278 0 37.9644 0.92714 39.5397 2.57746C41.115 4.22778 42 6.46609 42 8.8V35.2C42 37.5339 41.115 39.7722 39.5397 41.4225C37.9644 43.0729 35.8278 44 33.6 44H8.4C6.17218 44 4.03561 43.0729 2.4603 41.4225C0.884998 39.7722 0 37.5339 0 35.2V8.8C0 6.46609 0.884998 4.22778 2.4603 2.57746C4.03561 0.92714 6.17218 0 8.4 0Z" fill="black"/>
<path d="M17.2036 30.0743L17.1906 30.1552C17.1496 30.3994 17.0263 30.6209 16.8425 30.7803C16.6588 30.9397 16.4264 31.0269 16.1865 31.0265H13.3175C13.1709 31.026 13.0262 30.9925 12.8934 30.9284C12.7605 30.8643 12.6428 30.7712 12.5483 30.6554C12.4538 30.5396 12.3848 30.4039 12.3461 30.2578C12.3074 30.1118 12.3 29.9587 12.3243 29.8093L15.2128 12.069C15.2528 11.8261 15.3746 11.6056 15.5568 11.4466C15.739 11.2875 15.9697 11.2002 16.2082 11.2H24.0456C26.6363 11.2 28.7359 13.3692 28.7359 16.046C28.7359 16.3649 28.7163 16.6792 28.6793 16.9891C29.7291 17.7571 30.4138 19.0237 30.4138 20.4541C30.4138 22.2301 29.7309 23.9334 28.5155 25.1892C27.3 26.445 25.6515 27.1505 23.9326 27.1505H23.274C22.9155 27.1507 22.5686 27.282 22.2949 27.5213C22.0212 27.7605 21.8383 28.0922 21.7787 28.4575L21.4223 30.6447L21.7787 28.4575C21.8383 28.0922 22.0212 27.7605 22.2949 27.5213C22.5686 27.282 22.9155 27.1507 23.274 27.1505H23.9326C25.6515 27.1505 27.3 26.445 28.5155 25.1892C29.7309 23.9334 30.4138 22.2301 30.4138 20.4541C30.4138 19.0237 29.7291 17.7594 28.6793 16.9869C28.4578 18.8339 27.5905 20.5335 26.2407 21.766C24.891 22.9984 23.1518 23.6787 21.3505 23.6788H19.1662C18.9286 23.6788 18.6973 23.7585 18.5072 23.9059C18.3171 24.0533 18.1785 24.2604 18.1121 24.4962L16.8037 32.5265C16.7822 32.6585 16.7888 32.7936 16.8231 32.9226C16.8573 33.0516 16.9183 33.1714 17.0019 33.2736C17.0855 33.3757 17.1896 33.4579 17.307 33.5142C17.4244 33.5706 17.5523 33.5998 17.6818 33.5999H20.1899C20.6246 33.5999 20.9941 33.2743 21.068 32.8319L21.4244 30.6447L21.068 32.8319C21.0331 33.0465 20.9257 33.2414 20.765 33.382C20.6042 33.5225 20.4005 33.5998 20.1899 33.5999H17.6818C17.5521 33.6006 17.4238 33.5719 17.306 33.5158C17.1882 33.4596 17.0838 33.3775 17.0001 33.2752C16.9163 33.1728 16.8553 33.0527 16.8214 32.9234C16.7875 32.794 16.7814 32.6586 16.8037 32.5265L17.2036 30.0743Z" fill="black"/>
<path d="M29.7878 17.6C30.1829 18.286 30.4138 19.1046 30.4138 19.9837C30.4138 21.8225 29.7607 23.5861 28.5981 24.8866C27.4356 26.1871 25.8587 26.918 24.2144 26.9186H23.5822C23.2391 26.9187 22.9072 27.0548 22.6453 27.3025C22.3834 27.5503 22.2084 27.8938 22.1514 28.2721L21.4713 32.8046C21.4375 33.0264 21.3346 33.2277 21.1808 33.3728C21.0271 33.5179 20.8324 33.5976 20.6312 33.5977H18.433L19.6808 25.3186C19.7434 25.0739 19.8754 24.8586 20.057 24.7051C20.2385 24.5516 20.4597 24.4682 20.6873 24.4674H22.7815C24.4955 24.4676 26.1511 23.7711 27.44 22.5077C28.7289 21.2443 29.5633 19.5001 29.7878 17.6ZM18.433 33.6H18.2313C18.1074 33.5999 17.985 33.5696 17.8727 33.5112C17.7603 33.4528 17.6607 33.3678 17.5807 33.262C17.5007 33.1562 17.4424 33.0322 17.4096 32.8986C17.3769 32.7649 17.3705 32.625 17.3911 32.4884L17.4535 32.079H17.8382C18.0674 32.079 18.2893 31.9884 18.4647 31.8234C18.6401 31.6583 18.7577 31.4293 18.7969 31.1767L18.8115 31.093L18.433 33.5977V33.6Z" fill="black"/>
</svg>
