<svg width="40" height="40" viewBox="0 0 40 40" fill="none" xmlns="http://www.w3.org/2000/svg">
<path d="M23.0769 24.2857C23.0769 23.9069 23.239 23.5435 23.5275 23.2756C23.816 23.0077 24.2073 22.8572 24.6154 22.8572H30.7692C31.1772 22.8572 31.5686 23.0077 31.8571 23.2756C32.1456 23.5435 32.3077 23.9069 32.3077 24.2857V30C32.3077 30.3789 32.1456 30.7423 31.8571 31.0102C31.5686 31.2781 31.1772 31.4286 30.7692 31.4286H24.6154C24.2073 31.4286 23.816 31.2781 23.5275 31.0102C23.239 30.7423 23.0769 30.3789 23.0769 30V24.2857ZM26.1538 28.5715H29.2308V25.7143H26.1538V28.5715Z" fill="black"/>
<path d="M8.27077 0.314286L0.578461 6.02857C0.0676922 6.40571 0 7.05714 0 7.62857V12.8571C0 14.4657 0.572308 15.9486 1.53846 17.1429V38.5714C1.53846 38.9503 1.70055 39.3137 1.98907 39.5816C2.27758 39.8495 2.6689 40 3.07692 40H36.9231C37.3311 40 37.7224 39.8495 38.0109 39.5816C38.2995 39.3137 38.4615 38.9503 38.4615 38.5714V17.1429C39.4277 15.9486 40 14.4657 40 12.8571V7.61714C40 7.04571 39.9323 6.40571 39.4215 6.02857L31.7292 0.314286C31.4569 0.111409 31.1184 0.000577554 30.7692 0H9.23077C8.88163 0.000577554 8.54309 0.111409 8.27077 0.314286ZM12.3077 8.57143V12.8571C12.3077 13.9938 11.8214 15.0839 10.9559 15.8876C10.0903 16.6913 8.91638 17.1429 7.69231 17.1429C6.46823 17.1429 5.29429 16.6913 4.42874 15.8876C3.56319 15.0839 3.07692 13.9938 3.07692 12.8571V8.57143H12.3077ZM24.6154 8.57143V12.8571C24.6154 13.9938 24.1291 15.0839 23.2636 15.8876C22.398 16.6913 21.2241 17.1429 20 17.1429C18.7759 17.1429 17.602 16.6913 16.7364 15.8876C15.8709 15.0839 15.3846 13.9938 15.3846 12.8571V8.57143H24.6154ZM36.9231 8.57143V12.8571C36.9231 13.9938 36.4368 15.0839 35.5713 15.8876C34.7057 16.6913 33.5318 17.1429 32.3077 17.1429C31.0836 17.1429 29.9097 16.6913 29.0441 15.8876C28.1786 15.0839 27.6923 13.9938 27.6923 12.8571V8.57143H36.9231ZM13.9354 2.85714L12.7815 5.71429H5.92308L9.76923 2.85714H13.9385H13.9354ZM16.0677 5.71429L17.2215 2.85714H22.7385L23.7631 5.71429H16.0677ZM25.9815 2.85714H30.2277L34.0738 5.71429H27.0062L25.9815 2.85714ZM35.3846 19.4057V37.1429H20V24.2857C20 23.9068 19.8379 23.5435 19.5494 23.2756C19.2609 23.0077 18.8696 22.8571 18.4615 22.8571H9.23077C8.82274 22.8571 8.43143 23.0077 8.14291 23.2756C7.8544 23.5435 7.69231 23.9068 7.69231 24.2857V37.1429H4.61538V19.4057C6.20324 20.0511 7.97953 20.1788 9.65543 19.768C11.3313 19.3571 12.8083 18.432 13.8462 17.1429C15.2492 18.8771 17.4831 20 20 20C22.5169 20 24.7508 18.8771 26.1538 17.1429C27.1917 18.432 28.6687 19.3571 30.3446 19.768C32.0205 20.1788 33.7968 20.0511 35.3846 19.4057ZM16.9231 37.1429H10.7692V25.7143H16.9231V37.1429Z" fill="black"/>
</svg>
