<svg width="68" height="63" viewBox="0 0 68 63" fill="none" xmlns="http://www.w3.org/2000/svg">
<path d="M51 21.8831C49.7488 22.3871 48.4058 22.7336 46.9948 22.8848C48.4364 22.0973 49.538 20.8499 50.0616 19.3662C48.6879 20.1079 47.189 20.6298 45.628 20.9097C44.9714 20.2721 44.1814 19.765 43.3064 19.4195C42.4313 19.074 41.4894 18.8972 40.5382 18.9C36.686 18.9 33.5648 21.7508 33.5648 25.263C33.5648 25.7607 33.626 26.2458 33.745 26.712C30.9819 26.5905 28.2765 25.9366 25.8014 24.7922C23.3263 23.6479 21.1358 22.0381 19.3698 20.0655C18.7495 21.0329 18.4229 22.1376 18.4246 23.2628C18.4246 25.4678 19.6588 27.4208 21.5288 28.5579C20.4219 28.5258 19.3387 28.2528 18.3668 27.761V27.8397C18.3773 29.3185 18.9407 30.7482 19.9611 31.8854C20.9815 33.0226 22.3958 33.797 23.9632 34.0767C22.9342 34.3288 21.8576 34.3654 20.8114 34.1838C21.2674 35.456 22.1397 36.5651 23.3071 37.3571C24.4745 38.149 25.879 38.5846 27.3258 38.6033C24.8437 40.3753 21.7962 41.3327 18.6626 41.3249C18.1016 41.3249 17.5474 41.2934 17 41.2367C20.1976 43.1118 23.9053 44.105 27.6896 44.1C40.5212 44.1 47.5354 34.4043 47.5354 25.9938L47.5116 25.1685C48.8794 24.278 50.0614 23.1648 51 21.8831V21.8831Z" fill="black"/>
<path d="M13.6 6.3C11.7965 6.3 10.0669 6.96375 8.79167 8.14523C7.51643 9.32671 6.8 10.9291 6.8 12.6V50.4C6.8 52.0709 7.51643 53.6733 8.79167 54.8548C10.0669 56.0363 11.7965 56.7 13.6 56.7H54.4C56.2035 56.7 57.9331 56.0363 59.2083 54.8548C60.4836 53.6733 61.2 52.0709 61.2 50.4V12.6C61.2 10.9291 60.4836 9.32671 59.2083 8.14523C57.9331 6.96375 56.2035 6.3 54.4 6.3H13.6ZM13.6 0H54.4C58.0069 0 61.4662 1.3275 64.0167 3.69045C66.5671 6.05341 68 9.25827 68 12.6V50.4C68 53.7417 66.5671 56.9466 64.0167 59.3095C61.4662 61.6725 58.0069 63 54.4 63H13.6C9.99306 63 6.53384 61.6725 3.98335 59.3095C1.43285 56.9466 0 53.7417 0 50.4V12.6C0 9.25827 1.43285 6.05341 3.98335 3.69045C6.53384 1.3275 9.99306 0 13.6 0V0Z" fill="black"/>
</svg>
